# xmcd
#
# Track frame offsets:
#	150
#	13357
#	29422
#	53892
#	66487
#	81650
#	98180
#	113267
#	126780
#	138605
#
# Disc length: 2065 seconds
#
# Revision: 1
# Processed by: cddbd v1.5.2PL0 Copyright (c) Steve Scherf et al.
# Submitted via: audiograbber 1.83.01
#
DISCID=90080f0a
DTITLE=Boots Brothers - Die Sonne wird wieder scheinen
DYEAR=1900
DGENRE=
TTITLE0=Die Sonne wird wieder scheinen
TTITLE1=Verräter
TTITLE2=Depressionen
TTITLE3=Hoffnung
TTITLE4=Medien
TTITLE5=Nie zu spät
TTITLE6=Deutsche Kraft
TTITLE7=anders als ihr
TTITLE8=Trotz ihrer Lügen
TTITLE9=J´s Delirium Mix
EXTD=
EXTT0=
EXTT1=
EXTT2=
EXTT3=
EXTT4=
EXTT5=
EXTT6=
EXTT7=
EXTT8=
EXTT9=
PLAYORDER=
